REM DIRINDEX 1\2,1\3,1\4,1\5,1\6
REM DIRNAME "folder01","folder02","folder03","folder04","folder05","folder06"
TITLE ""
FILE "Disc6Track02.mp3" MP3
  TRACK 01 AUDIO
    TITLE "3:cjc161_10459"
    INDEX 01 00:00:00
  TRACK 02 AUDIO
    TITLE "4:cjc161_10460"
    INDEX 01 00:01:04
  TRACK 03 AUDIO
    TITLE "5:cjc161_10461"
    INDEX 01 00:03:01
  TRACK 04 AUDIO
    TITLE "6:cjc161_10462"
    INDEX 01 00:04:14
  TRACK 05 AUDIO
    TITLE "0:"
    INDEX 01 00:08:24
  TRACK 06 AUDIO
    TITLE "3:cjc161_10463"
    INDEX 01 00:08:55
  TRACK 07 AUDIO
    TITLE "4:cjc161_10464"
    INDEX 01 00:10:05
  TRACK 08 AUDIO
    TITLE "5:cjc161_10465"
    INDEX 01 00:12:29
  TRACK 09 AUDIO
    TITLE "6:cjc161_10466"
    INDEX 01 00:13:52
  TRACK 10 AUDIO
    TITLE "0:"
    INDEX 01 00:19:31
  TRACK 11 AUDIO
    TITLE "3:cjc161_10467"
    INDEX 01 00:19:64
  TRACK 12 AUDIO
    TITLE "4:cjc161_10468"
    INDEX 01 00:21:09
  TRACK 13 AUDIO
    TITLE "5:cjc161_10469"
    INDEX 01 00:23:52
  TRACK 14 AUDIO
    TITLE "6:cjc161_10470"
    INDEX 01 00:24:72
  TRACK 15 AUDIO
    TITLE "0:"
    INDEX 01 00:29:22
  TRACK 16 AUDIO
    TITLE "3:cjc161_10471"
    INDEX 01 00:29:55
  TRACK 17 AUDIO
    TITLE "4:cjc161_10472"
    INDEX 01 00:31:05
  TRACK 18 AUDIO
    TITLE "5:cjc161_10473"
    INDEX 01 00:32:51
  TRACK 19 AUDIO
    TITLE "6:cjc161_10474"
    INDEX 01 00:33:72
  TRACK 20 AUDIO
    TITLE "0:"
    INDEX 01 00:36:18
  TRACK 21 AUDIO
    TITLE "3:cjc161_10475"
    INDEX 01 00:36:53
  TRACK 22 AUDIO
    TITLE "4:cjc161_10476"
    INDEX 01 00:38:07
  TRACK 23 AUDIO
    TITLE "5:cjc161_10477"
    INDEX 01 00:40:55
  TRACK 24 AUDIO
    TITLE "6:cjc161_10478"
    INDEX 01 00:42:07
  TRACK 25 AUDIO
    TITLE "0:"
    INDEX 01 00:44:17
  TRACK 26 AUDIO
    TITLE "3:cjc161_10479"
    INDEX 01 00:44:55
  TRACK 27 AUDIO
    TITLE "4:cjc161_10480"
    INDEX 01 00:45:72
  TRACK 28 AUDIO
    TITLE "5:cjc161_10481"
    INDEX 01 00:49:07
  TRACK 29 AUDIO
    TITLE "6:cjc161_10482"
    INDEX 01 00:50:22
  TRACK 30 AUDIO
    TITLE "0:"
    INDEX 01 00:55:33
  TRACK 31 AUDIO
    TITLE "3:cjc161_10483"
    INDEX 01 00:55:64
  TRACK 32 AUDIO
    TITLE "4:cjc161_10484"
    INDEX 01 00:56:72
  TRACK 33 AUDIO
    TITLE "5:cjc161_10485"
    INDEX 01 00:59:07
  TRACK 34 AUDIO
    TITLE "6:cjc161_10486"
    INDEX 01 01:00:16
  TRACK 35 AUDIO
    TITLE "0:"
    INDEX 01 01:03:23
  TRACK 36 AUDIO
    TITLE "3:cjc161_10487"
    INDEX 01 01:03:54
  TRACK 37 AUDIO
    TITLE "4:cjc161_10488"
    INDEX 01 01:04:67
  TRACK 38 AUDIO
    TITLE "5:cjc161_10489"
    INDEX 01 01:07:15
  TRACK 39 AUDIO
    TITLE "0:"
    INDEX 01 01:08:26
  TRACK 40 AUDIO
    TITLE "3:cjc161_10490"
    INDEX 01 01:08:63
  TRACK 41 AUDIO
    TITLE "4:cjc161_10491"
    INDEX 01 01:10:15
  TRACK 42 AUDIO
    TITLE "5:cjc161_10492"
    INDEX 01 01:11:24
  TRACK 43 AUDIO
    TITLE "0:"
    INDEX 01 01:12:49
  TRACK 44 AUDIO
    TITLE "3:cjc161_10493"
    INDEX 01 01:13:11
  TRACK 45 AUDIO
    TITLE "4:cjc161_10494"
    INDEX 01 01:14:24
  TRACK 46 AUDIO
    TITLE "5:cjc161_10495"
    INDEX 01 01:17:03
  TRACK 47 AUDIO
    TITLE "6:cjc161_10496"
    INDEX 01 01:18:14
  TRACK 48 AUDIO
    TITLE "0:"
    INDEX 01 01:19:51
  TRACK 49 AUDIO
    TITLE "3:cjc161_10497"
    INDEX 01 01:20:07
  TRACK 50 AUDIO
    TITLE "4:cjc161_10498"
    INDEX 01 01:21:24
  TRACK 51 AUDIO
    TITLE "5:cjc161_10499"
    INDEX 01 01:23:35
  TRACK 52 AUDIO
    TITLE "6:cjc161_10500"
    INDEX 01 01:24:50
  TRACK 53 AUDIO
    TITLE "0:"
    INDEX 01 01:28:70
  TRACK 54 AUDIO
    TITLE "3:cjc161_10501"
    INDEX 01 01:29:28
  TRACK 55 AUDIO
    TITLE "4:cjc161_10502"
    INDEX 01 01:30:55
  TRACK 56 AUDIO
    TITLE "5:cjc161_10503"
    INDEX 01 01:32:01
  TRACK 57 AUDIO
    TITLE "0:"
    INDEX 01 01:33:28
  TRACK 58 AUDIO
    TITLE "3:cjc161_10504"
    INDEX 01 01:33:67
  TRACK 59 AUDIO
    TITLE "4:cjc161_10505"
    INDEX 01 01:35:19
  TRACK 60 AUDIO
    TITLE "5:cjc161_10506"
    INDEX 01 01:37:27
  TRACK 61 AUDIO
    TITLE "0:"
    INDEX 01 01:38:56
